<svg width="40" height="37" viewBox="0 0 40 37" fill="none" xmlns="http://www.w3.org/2000/svg">
<path d="M28.46 4.37738e-05C26.9438 -0.00414625 25.4419 0.292505 24.0411 0.872818C22.6404 1.45313 21.3687 2.30557 20.2997 3.38078L20.2475 3.43297C20.1646 3.51589 20.0523 3.56268 19.935 3.56317C19.8178 3.56365 19.7051 3.51778 19.6215 3.43555C17.4513 1.30218 14.5262 0.112636 11.483 0.125957C8.43991 0.139279 5.52529 1.35439 3.37389 3.50667C-1.12463 8.00519 -1.12463 15.3268 3.37389 19.8272L20.0094 36.4607L36.6189 19.7028C38.2331 18.0889 39.3325 16.0326 39.778 13.7938C40.2235 11.5551 39.9952 9.23457 39.1219 7.12561C38.2486 5.01666 36.7695 3.21404 34.8717 1.9457C32.9739 0.677356 30.7426 0.000264381 28.46 4.37738e-05Z" fill="#36B37E"/>
</svg>
