<svg width="42" height="48" viewBox="0 0 42 48" fill="none" xmlns="http://www.w3.org/2000/svg">
<path d="M21 0C20.4477 0 20 0.4477 20 0.999999V5C20 5.5523 20.4477 6 21 6C21.5523 6 22 5.5523 22 5V0.999999C22 0.4477 21.5523 0 21 0ZM6.8594 5.85937C6.60345 5.85937 6.35155 5.96095 6.15625 6.15625C5.76575 6.54675 5.76575 7.17195 6.15625 7.5625L8.98439 10.3906C9.37479 10.7811 10.0001 10.7811 10.3906 10.3906C10.7811 10.0001 10.7811 9.37492 10.3906 8.98437L7.5625 6.15625C7.36725 5.96095 7.11525 5.85937 6.8594 5.85937ZM35.1406 5.85937C34.8847 5.85937 34.6328 5.96095 34.4375 6.15625L31.6094 8.98437C31.2188 9.37492 31.2188 10.0001 31.6094 10.3906C31.9999 10.7811 32.6251 10.7811 33.0156 10.3906L35.8437 7.5625C36.2342 7.17195 36.2342 6.54675 35.8437 6.15625C35.6484 5.96095 35.3966 5.85937 35.1406 5.85937ZM21 8.99999C14.9024 8.99999 8.99999 13.7307 8.99999 20.4219C8.99999 28.6093 14.779 30.6916 15.4375 36H26.5625C27.2209 30.6916 33 28.6093 33 20.4219C33 13.7307 27.0976 8.99999 21 8.99999ZM19.8906 11.5625C20.5423 11.5316 21.095 11.8628 21.0781 12.5156C21.0946 13.0392 20.6329 13.5305 20.1094 13.5469C16.3793 13.9819 13.5 17.1433 13.5 21C13.5 21.7681 13.6141 22.5057 13.8281 23.2031C14.0364 23.7165 13.7176 24.3705 13.1875 24.5313C12.6574 24.692 12.0337 24.3238 11.9219 23.7813C11.6506 22.8986 11.5 21.9711 11.5 21C11.5 16.1413 15.1698 12.1131 19.8906 11.5625ZM0.999999 20C0.4477 20 0 20.4477 0 21C0 21.5523 0.4477 22 0.999999 22H5C5.5523 22 6 21.5523 6 21C6 20.4477 5.5523 20 5 20H0.999999ZM37 20C36.4477 20 36 20.4477 36 21C36 21.5523 36.4477 22 37 22H41C41.5523 22 42 21.5523 42 21C42 20.4477 41.5523 20 41 20H37ZM15.5 38V40H26.5V38H15.5ZM15.5 42V43C15.5 44.1491 16.4447 45 17.5 45H19V46C19 47.108 19.892 48 21 48C22.108 48 23 47.108 23 46V45H24.5C25.5552 45 26.5 44.1491 26.5 43V42H15.5Z" fill="#00B8D9"/>
</svg>
