<svg width="48" height="32" viewBox="0 0 48 32" fill="none" xmlns="http://www.w3.org/2000/svg">
<path d="M7.97448 5.94078C10.5381 5.94078 12.6162 8.01933 12.6162 10.5825C12.6162 13.1461 10.5381 15.2247 7.97448 15.2247C5.41083 15.2247 3.33228 13.1461 3.33228 10.5825C3.33228 8.01933 5.41083 5.94078 7.97448 5.94078ZM40.0271 5.94078C42.5912 5.94078 44.6693 8.01933 44.6693 10.5825C44.6693 13.1461 42.5912 15.2247 40.0271 15.2247C37.4634 15.2247 35.3854 13.1461 35.3854 10.5825C35.3854 8.01933 37.4634 5.94078 40.0271 5.94078ZM36.7721 25.1024H48C48 20.6984 44.4301 17.1285 40.026 17.1285C37.5835 17.1285 35.3988 18.2296 33.9373 19.9602C33.4336 19.3947 32.8841 18.874 32.2938 18.4002C31.1221 17.4625 29.7936 16.7099 28.3471 16.2078C30.9406 14.7035 32.6887 11.8955 32.6887 8.68847C32.6887 3.89728 28.7904 0 24.0003 0C19.2101 0 15.3123 3.89728 15.3123 8.68847C15.3123 11.896 17.0609 14.703 19.6534 16.2078C18.2064 16.7099 16.879 17.462 15.7056 18.4002C15.1164 18.8745 14.5658 19.3957 14.0637 19.9602C12.6002 18.2296 10.417 17.1285 7.97294 17.1285C3.56993 17.1285 0 20.6979 0 25.1024H11.2289C11.0181 25.8345 10.867 26.5907 10.7856 27.3686C10.7356 27.8316 10.7015 28.3007 10.7015 28.777C10.7015 30.0287 11.7171 31.0432 12.9672 31.0432H35.0312C36.2839 31.0432 37.299 30.0287 37.299 28.777C37.299 28.3002 37.2639 27.8316 37.2155 27.3686C37.1345 26.5902 36.9845 25.8345 36.7721 25.1024ZM17.5795 8.68847C17.5795 5.14122 20.4546 2.2662 24.0013 2.2662C27.5475 2.2662 30.423 5.14122 30.423 8.68847C30.423 12.2347 27.5465 15.1107 24.0013 15.1107C20.4546 15.1107 17.5795 12.2352 17.5795 8.68847ZM12.9688 28.7775C12.9688 28.2996 13.0028 27.83 13.0616 27.3691C13.1626 26.585 13.343 25.8262 13.5982 25.1029C14.0014 23.9647 14.5844 22.913 15.3144 21.982C15.8103 21.3485 16.3717 20.769 16.9924 20.2576C18.8982 18.6879 21.3387 17.746 24.0013 17.746C26.6629 17.746 29.1038 18.6879 31.0112 20.2576C31.6309 20.769 32.1918 21.3479 32.6887 21.982C33.4192 22.913 34.0028 23.9647 34.4033 25.1029C34.66 25.8257 34.8415 26.5845 34.9405 27.3691C34.9998 27.8305 35.0328 28.3002 35.0328 28.7775H12.9688Z" fill="#FFAB00"/>
</svg>
