<svg width="30" height="48" viewBox="0 0 30 48" fill="none" xmlns="http://www.w3.org/2000/svg">
<path d="M4.90909 0C2.20833 0 0 2.20833 0 4.90909V43.0909C0 45.7917 2.20833 48 4.90909 48H24.5455C27.2462 48 29.4545 45.7917 29.4545 43.0909V4.90909C29.4545 2.20833 27.2462 0 24.5455 0H4.90909ZM4.90909 2.18182H24.5455C26.0752 2.18182 27.2727 3.37931 27.2727 4.90909V5.45455H2.18182V4.90909C2.18182 3.37931 3.37931 2.18182 4.90909 2.18182ZM2.18182 7.63636H27.2727V37.0909H2.18182V7.63636ZM14.1818 12.6989L6.54545 17.0625C6.21572 17.2522 6.0003 17.6225 6 18V26.7273C6.0003 27.1048 6.21572 27.475 6.54545 27.6648L14.1818 32.0284C14.512 32.2158 14.9425 32.2158 15.2727 32.0284L22.9091 27.6648C23.2388 27.475 23.4543 27.1048 23.4545 26.7273V18C23.4543 17.6225 23.2388 17.2522 22.9091 17.0625L15.2727 12.6989C15.1169 12.6098 14.9161 12.5455 14.7273 12.5455C14.5384 12.5455 14.3264 12.6162 14.1818 12.6989ZM14.7273 14.8977L20.1648 18L14.7273 21.1023L9.28977 18L14.7273 14.8977ZM8.18182 19.875L13.6364 22.9943V29.2159L8.18182 26.0966V19.875ZM21.2727 19.875V26.0966L15.8182 29.2159V22.9943L21.2727 19.875ZM2.18182 39.2727H27.2727V43.0909C27.2727 44.6207 26.0752 45.8182 24.5455 45.8182H4.90909C3.37931 45.8182 2.18182 44.6207 2.18182 43.0909V39.2727ZM14.7273 40.9091C13.8235 40.9091 13.0909 41.6417 13.0909 42.5455C13.0909 43.4492 13.8235 44.1818 14.7273 44.1818C15.631 44.1818 16.3636 43.4492 16.3636 42.5455C16.3636 41.6417 15.631 40.9091 14.7273 40.9091Z" fill="#FA5762"/>
</svg>
