<svg width="38" height="38" viewBox="0 0 38 38" fill="none" xmlns="http://www.w3.org/2000/svg">
<path d="M14.1794 13.2671C15.7455 13.2671 17.015 11.9976 17.015 10.4315C17.015 8.86539 15.7455 7.59583 14.1794 7.59583C12.6133 7.59583 11.3438 8.86539 11.3438 10.4315C11.3438 11.9976 12.6133 13.2671 14.1794 13.2671Z" fill="#2684FF"/>
<path d="M23.6989 13.2671C25.265 13.2671 26.5346 11.9976 26.5346 10.4315C26.5346 8.86539 25.265 7.59583 23.6989 7.59583C22.1328 7.59583 20.8633 8.86539 20.8633 10.4315C20.8633 11.9976 22.1328 13.2671 23.6989 13.2671Z" fill="#2684FF"/>
<path d="M18.9376 22.7863C22.2289 22.7863 25.419 21.571 27.8496 19.343C28.5585 18.5834 28.5585 17.3682 27.7989 16.6593C27.1407 16.001 26.0773 15.9503 25.3178 16.5073C21.7226 19.7481 16.2538 19.7987 12.6586 16.558C11.8991 15.8491 10.6838 15.9503 9.97489 16.7099C9.26598 17.4694 9.36725 18.6847 10.1268 19.3936C12.5574 21.571 15.6968 22.7863 18.9376 22.7863Z" fill="#2684FF"/>
<path d="M3.79774 30.3819H25.6221L34.9392 37.3697C36.6102 38.6357 37.9774 37.9267 37.9774 35.8506V3.79774C37.9774 1.72164 36.3064 0 34.1796 0H3.79774C1.72164 0 0 1.72164 0 3.79774V26.5842C0 28.6603 1.671 30.3819 3.79774 30.3819ZM3.79774 3.79774H34.1796L34.2303 32.0529L26.888 26.5842H3.79774V3.79774Z" fill="#2684FF"/>
</svg>
