<svg width="44" height="28" viewBox="0 0 44 28" fill="none" xmlns="http://www.w3.org/2000/svg">
<path d="M21.678 28C17.1719 27.9847 12.7606 26.7052 8.94577 24.3068C5.13095 21.9085 2.06576 18.4877 0.0988798 14.4336C0.0337954 14.2983 0 14.1501 0 14C0 13.8499 0.0337954 13.7017 0.0988798 13.5664C2.05343 9.50266 5.11573 6.07341 8.93332 3.67336C12.7509 1.2733 17.1686 0 21.678 0C26.1873 0 30.605 1.2733 34.4226 3.67336C38.2402 6.07341 41.3025 9.50266 43.2571 13.5664C43.3222 13.7017 43.356 13.8499 43.356 14C43.356 14.1501 43.3222 14.2983 43.2571 14.4336C41.2902 18.4877 38.225 21.9085 34.4102 24.3068C30.5954 26.7052 26.184 27.9847 21.678 28ZM2.11547 14C3.95116 17.6107 6.75035 20.643 10.2031 22.761C13.6558 24.8789 17.6274 26 21.678 26C25.7286 26 29.7001 24.8789 33.1528 22.761C36.6056 20.643 39.4048 17.6107 41.2405 14C39.4048 10.3892 36.6056 7.357 33.1528 5.23903C29.7001 3.12106 25.7286 2 21.678 2C17.6274 2 13.6558 3.12106 10.2031 5.23903C6.75035 7.357 3.95116 10.3892 2.11547 14Z" fill="#403294"/>
<path d="M21.6788 24.2852C21.412 24.2859 21.1557 24.1812 20.9657 23.9939C20.7757 23.8067 20.6673 23.5519 20.6641 23.2852C20.6625 23.1547 20.6868 23.0252 20.7356 22.9041C20.7844 22.7831 20.8567 22.6729 20.9483 22.58C21.04 22.4871 21.1491 22.4133 21.2695 22.3628C21.3898 22.3124 21.519 22.2863 21.6495 22.2862V23.2862L21.6515 22.2862C21.9411 22.2863 22.2305 22.272 22.5187 22.2432C22.7823 22.217 23.0455 22.2966 23.2506 22.4643C23.4556 22.6321 23.5857 22.8743 23.6124 23.1379C23.639 23.4015 23.56 23.6649 23.3926 23.8703C23.2253 24.0756 22.9833 24.2062 22.7198 24.2334C22.377 24.2676 22.03 24.2848 21.6788 24.2852Z" fill="#403294"/>
<path d="M17.8731 23.4735C17.7313 23.4736 17.5911 23.4433 17.462 23.3847C17.1363 23.2373 16.8182 23.0737 16.5088 22.8944C16.3948 22.8287 16.2948 22.7412 16.2147 22.6368C16.1345 22.5324 16.0758 22.4132 16.0418 22.286C16.0078 22.1589 15.9992 22.0263 16.0165 21.8958C16.0339 21.7653 16.0768 21.6395 16.1429 21.5257C16.2089 21.4118 16.2968 21.3121 16.4014 21.2323C16.5061 21.1525 16.6255 21.0941 16.7527 21.0605C16.88 21.0269 17.0126 21.0187 17.1431 21.0365C17.2735 21.0542 17.3991 21.0976 17.5128 21.164C17.7636 21.3099 18.0217 21.4429 18.2862 21.5624C18.4946 21.6567 18.6643 21.8195 18.7672 22.0237C18.8701 22.228 18.8998 22.4613 18.8515 22.6848C18.8032 22.9083 18.6797 23.1085 18.5017 23.2521C18.3236 23.3956 18.1018 23.4738 17.8731 23.4735Z" fill="#403294"/>
<path d="M26.2935 23.0599C26.0733 23.06 25.8592 22.9875 25.6844 22.8535C25.5097 22.7195 25.384 22.5315 25.327 22.3188C25.27 22.106 25.2849 21.8804 25.3692 21.677C25.4536 21.4736 25.6027 21.3037 25.7935 21.1937C26.0442 21.0493 26.2874 20.8922 26.5221 20.723C26.6284 20.646 26.7488 20.5908 26.8765 20.5604C27.0041 20.53 27.1365 20.525 27.2661 20.5458C27.3957 20.5666 27.5199 20.6126 27.6317 20.6814C27.7435 20.7502 27.8406 20.8403 27.9176 20.9466C27.9945 21.0529 28.0498 21.1734 28.0802 21.301C28.1106 21.4287 28.1155 21.5611 28.0948 21.6907C28.074 21.8203 28.0279 21.9445 27.9591 22.0563C27.8904 22.1681 27.8002 22.2652 27.6939 22.3421C27.4036 22.5525 27.1024 22.7474 26.7916 22.9261C26.6402 23.0138 26.4684 23.0599 26.2935 23.0599Z" fill="#403294"/>
<path d="M14.1523 20.439C13.994 20.4392 13.838 20.4018 13.697 20.3298C13.5561 20.2578 13.4343 20.1533 13.3418 20.0249C13.1311 19.7346 12.9358 19.4334 12.7567 19.1226C12.6905 19.0088 12.6474 18.8831 12.63 18.7526C12.6125 18.6221 12.6209 18.4895 12.6548 18.3623C12.6888 18.2351 12.7475 18.1158 12.8276 18.0113C12.9077 17.9069 13.0077 17.8193 13.1218 17.7536C13.2358 17.6879 13.3618 17.6453 13.4923 17.6284C13.6229 17.6115 13.7555 17.6205 13.8825 17.655C14.0096 17.6895 14.1286 17.7487 14.2327 17.8293C14.3368 17.9099 14.424 18.0102 14.4892 18.1246C14.6339 18.3753 14.7913 18.6185 14.9608 18.8531C15.0686 19.0023 15.1332 19.1783 15.1473 19.3618C15.1615 19.5453 15.1248 19.7292 15.0412 19.8932C14.9576 20.0571 14.8304 20.1949 14.6735 20.2912C14.5167 20.3875 14.3363 20.4387 14.1523 20.439L14.1523 20.439Z" fill="#403294"/>
<path d="M29.7015 19.6738C29.5257 19.6735 29.3532 19.6269 29.2011 19.5386C29.0491 19.4504 28.9231 19.3236 28.8356 19.1711C28.7482 19.0186 28.7025 18.8458 28.7031 18.67C28.7038 18.4943 28.7507 18.3218 28.8392 18.1699C28.985 17.9198 29.1177 17.6623 29.2367 17.3984C29.2908 17.2788 29.3679 17.171 29.4637 17.0811C29.5595 16.9913 29.6721 16.9212 29.7949 16.8749C29.9178 16.8285 30.0486 16.8069 30.1799 16.8111C30.3111 16.8153 30.4403 16.8453 30.5599 16.8994C30.6796 16.9535 30.7874 17.0307 30.8772 17.1265C30.967 17.2223 31.0371 17.3348 31.0835 17.4577C31.1298 17.5806 31.1515 17.7114 31.1473 17.8426C31.1431 17.9739 31.113 18.103 31.0589 18.2227C30.9112 18.5493 30.7465 18.8681 30.5658 19.1777C30.4777 19.3288 30.3516 19.4542 30.1999 19.5412C30.0482 19.6283 29.8764 19.674 29.7015 19.6738Z" fill="#403294"/>
<path d="M12.4385 15.9502C12.1907 15.9499 11.9518 15.8576 11.7681 15.6913C11.5845 15.5249 11.4691 15.2963 11.4444 15.0498C11.4112 14.7138 11.3926 14.3711 11.3916 14.0254C11.3906 14.0097 11.3906 13.9941 11.3906 13.9804C11.3907 13.8492 11.4165 13.7192 11.4668 13.5979C11.5171 13.4767 11.5908 13.3665 11.6836 13.2738C11.7765 13.181 11.8867 13.1074 12.0081 13.0573C12.1294 13.0071 12.2594 12.9813 12.3906 12.9814C12.6482 12.9817 12.8957 13.0812 13.0817 13.2593C13.2678 13.4373 13.3781 13.6802 13.3896 13.9375C13.3906 13.959 13.3916 13.9795 13.3916 14C13.3916 14.2841 13.406 14.568 13.4346 14.8506C13.461 15.1145 13.3814 15.378 13.2135 15.5833C13.0456 15.7886 12.803 15.9188 12.5391 15.9453C12.5049 15.9482 12.4718 15.9502 12.4385 15.9502Z" fill="#403294"/>
<path d="M30.9632 15.0209C30.8329 15.0231 30.7035 14.9994 30.5824 14.9511C30.4614 14.9028 30.3512 14.831 30.2581 14.7398C30.1651 14.6486 30.0911 14.5398 30.0405 14.4197C29.9898 14.2997 29.9636 14.1707 29.9632 14.0404C29.9632 14.017 29.9652 13.9525 29.9671 13.9291C29.9641 13.7084 29.9495 13.4193 29.9192 13.1342C29.8923 12.8706 29.9712 12.607 30.1384 12.4015C30.3056 12.1959 30.5475 12.065 30.8111 12.0376C31.0746 12.0102 31.3383 12.0885 31.5442 12.2552C31.7502 12.422 31.8815 12.6637 31.9095 12.9272C31.9459 13.2838 31.9642 13.642 31.9641 14.0004C31.9648 14.2679 31.8602 14.5249 31.6729 14.7159C31.4856 14.9069 31.2306 15.0164 30.9632 15.0209Z" fill="#403294"/>
<path d="M13.1985 11.2066C13.0318 11.2065 12.8677 11.1647 12.7212 11.085C12.5747 11.0053 12.4505 10.8903 12.3599 10.7503C12.2692 10.6104 12.215 10.4499 12.2022 10.2837C12.1894 10.1174 12.2183 9.95059 12.2864 9.79838C12.4333 9.47069 12.5973 9.15092 12.7776 8.84038C12.9112 8.61179 13.13 8.44547 13.3859 8.37788C13.6419 8.31028 13.9143 8.34693 14.1433 8.47979C14.3723 8.61265 14.5393 8.83088 14.6077 9.08665C14.6761 9.34242 14.6403 9.61487 14.5081 9.84429C14.3628 10.094 14.2307 10.3512 14.1126 10.6148C14.0338 10.7913 13.9055 10.9411 13.7432 11.0461C13.581 11.1511 13.3918 11.2069 13.1985 11.2066Z" fill="#403294"/>
<path d="M29.7234 10.3591C29.5475 10.3594 29.3747 10.3131 29.2224 10.2252C29.0702 10.1372 28.9438 10.0106 28.8562 9.85813C28.7118 9.60817 28.5543 9.36597 28.3845 9.13254C28.2286 8.91809 28.1642 8.65048 28.2056 8.38859C28.247 8.1267 28.3907 7.89197 28.6052 7.73605C28.8196 7.58013 29.0873 7.51579 29.3491 7.55718C29.611 7.59857 29.8458 7.7423 30.0017 7.95675C30.2133 8.24717 30.4092 8.54871 30.5886 8.86007C30.676 9.01202 30.722 9.18427 30.7219 9.35957C30.7217 9.53487 30.6755 9.70706 30.5879 9.85889C30.5003 10.0107 30.3743 10.1368 30.2225 10.2246C30.0708 10.3124 29.8987 10.3588 29.7234 10.3591V10.3591Z" fill="#403294"/>
<path d="M16.2311 7.4794C16.0199 7.47954 15.8141 7.41282 15.6432 7.2888C15.4723 7.16478 15.345 6.98984 15.2796 6.78904C15.2142 6.58824 15.2141 6.3719 15.2792 6.17102C15.3444 5.97014 15.4714 5.79504 15.6422 5.67082C15.9327 5.45964 16.2342 5.26405 16.5455 5.08488C16.6593 5.01866 16.785 4.97557 16.9155 4.95808C17.046 4.94059 17.1787 4.94905 17.3059 4.98296C17.4331 5.01688 17.5523 5.07558 17.6568 5.15571C17.7612 5.23584 17.8488 5.33581 17.9145 5.44989C17.9803 5.56396 18.0228 5.68989 18.0397 5.82045C18.0566 5.951 18.0476 6.08362 18.0131 6.21067C17.9786 6.33773 17.9194 6.45672 17.8388 6.56082C17.7582 6.66492 17.6579 6.75208 17.5435 6.8173C17.2936 6.96149 17.0515 7.1186 16.8179 7.288C16.6475 7.41234 16.442 7.47936 16.2311 7.4794Z" fill="#403294"/>
<path d="M26.3264 6.96025C26.1504 6.96041 25.9775 6.91391 25.8254 6.82549C25.5757 6.68046 25.3185 6.54876 25.0549 6.43095C24.8133 6.32233 24.6246 6.1223 24.5304 5.87475C24.4361 5.6272 24.4438 5.35236 24.5519 5.11053C24.66 4.8687 24.8597 4.67963 25.107 4.58482C25.3544 4.49 25.6292 4.49718 25.8713 4.60478C26.199 4.75136 26.5187 4.91499 26.8293 5.09502C27.0197 5.20543 27.1684 5.37556 27.2522 5.57905C27.3361 5.78254 27.3505 6.00801 27.2932 6.22052C27.2359 6.43303 27.1101 6.6207 26.9353 6.75444C26.7605 6.88818 26.5465 6.96052 26.3264 6.96025Z" fill="#403294"/>
<path d="M20.718 5.76369C20.4616 5.76346 20.2151 5.66478 20.0294 5.48803C19.8437 5.31128 19.7329 5.06996 19.72 4.8139C19.7071 4.55784 19.793 4.30661 19.96 4.11207C20.127 3.91754 20.3624 3.79458 20.6174 3.76857C20.9701 3.7329 21.3244 3.71497 21.679 3.71486C21.9442 3.71356 22.199 3.81767 22.3875 4.00429C22.5759 4.19091 22.6825 4.44475 22.6838 4.70997C22.6851 4.97519 22.581 5.23006 22.3944 5.41851C22.2078 5.60696 21.9539 5.71356 21.6887 5.71486H21.679C21.3922 5.7147 21.1057 5.72939 20.8206 5.75886C20.7864 5.76174 20.7522 5.76369 20.718 5.76369Z" fill="#403294"/>
<path d="M21.6787 18.7139C20.4285 18.7139 19.2295 18.2172 18.3455 17.3332C17.4615 16.4492 16.9648 15.2502 16.9648 14C16.9648 12.7498 17.4615 11.5508 18.3455 10.6668C19.2295 9.78277 20.4285 9.28613 21.6787 9.28613C21.9439 9.28613 22.1983 9.39149 22.3858 9.57903C22.5734 9.76656 22.6787 10.0209 22.6787 10.2861C22.6787 10.5513 22.5734 10.8057 22.3858 10.9932C22.1983 11.1808 21.9439 11.2861 21.6787 11.2861C21.142 11.2861 20.6173 11.4453 20.171 11.7435C19.7247 12.0417 19.3768 12.4656 19.1714 12.9614C18.966 13.4573 18.9123 14.003 19.017 14.5295C19.1217 15.0559 19.3802 15.5395 19.7597 15.919C20.1393 16.2985 20.6228 16.557 21.1493 16.6617C21.6757 16.7664 22.2214 16.7127 22.7173 16.5073C23.2132 16.3019 23.637 15.954 23.9352 15.5077C24.2334 15.0615 24.3926 14.5368 24.3926 14C24.3926 13.7348 24.4979 13.4804 24.6855 13.2929C24.873 13.1054 25.1274 13 25.3926 13C25.6578 13 25.9122 13.1054 26.0997 13.2929C26.2872 13.4804 26.3926 13.7348 26.3926 14C26.3913 15.2498 25.8942 16.448 25.0105 17.3318C24.1268 18.2155 22.9285 18.7126 21.6787 18.7139Z" fill="#403294"/>
</svg>
